<svg width="38" height="38" viewBox="0 0 38 38" fill="none" xmlns="http://www.w3.org/2000/svg">
<circle cx="19" cy="19" r="19" fill="white"/>
<path d="M17.3333 24.8333V20.6666H20.6666V24.8333C20.6666 25.2916 21.0416 25.6666 21.5 25.6666H24C24.4583 25.6666 24.8333 25.2916 24.8333 24.8333V19H26.25C26.6333 19 26.8166 18.525 26.525 18.275L19.5583 12C19.2416 11.7166 18.7583 11.7166 18.4416 12L11.475 18.275C11.1916 18.525 11.3666 19 11.75 19H13.1666V24.8333C13.1666 25.2916 13.5416 25.6666 14 25.6666H16.5C16.9583 25.6666 17.3333 25.2916 17.3333 24.8333Z" fill="#0300A3"/>
</svg>
